<svg width="123" height="123" viewBox="0 0 123 123" fill="none" xmlns="http://www.w3.org/2000/svg">
<path d="M61.44 -5.48338e-07C75.6599 -0.00406524 89.4413 4.92285 100.436 13.9412C111.43 22.9595 118.957 35.5111 121.734 49.4572C124.511 63.4034 122.366 77.8809 115.665 90.4229C108.964 102.965 98.1214 112.795 84.9846 118.239C71.8478 123.682 57.2299 124.402 43.6219 120.275C30.014 116.149 18.2579 107.431 10.3572 95.6079C2.45641 83.7849 -1.10019 69.588 0.293446 55.4366C1.68708 41.2851 7.94471 28.0547 18 18C23.6967 12.2843 30.4675 7.75145 37.9226 4.66229C45.3778 1.57314 53.3702 -0.0113449 61.44 -5.48338e-07ZM61.05 74.18L52.1 98.91C51.88 99.5297 51.5384 100.099 51.0954 100.585C50.6524 101.071 50.1168 101.464 49.52 101.74C48.6236 102.16 47.6226 102.305 46.6438 102.156C45.6651 102.007 44.7527 101.57 44.0223 100.902C43.2918 100.233 42.7762 99.3633 42.5408 98.4017C42.3054 97.44 42.3608 96.4301 42.7 95.5L48.94 78.22C49.4352 76.9197 49.8264 75.5822 50.11 74.22C50.3622 72.8369 50.5424 71.4417 50.65 70.04C50.89 67.51 51.06 64.77 51.19 62.14C51.32 59.51 51.41 56.96 51.48 54.85C51.57 52.22 50.86 52.05 48.75 51.55L48.31 51.45L30.31 48.06C29.6626 47.9458 29.0441 47.7051 28.4899 47.3516C27.9356 46.9981 27.4565 46.5388 27.08 46C26.5206 45.1837 26.216 44.2198 26.2048 43.2303C26.1936 42.2408 26.4762 41.2702 27.017 40.4414C27.5577 39.6127 28.3322 38.963 29.2424 38.5747C30.1526 38.1863 31.1575 38.0768 32.13 38.26L51.47 41.89C52.24 41.96 52.99 42.05 53.78 42.14C56.1599 42.4661 58.558 42.6431 60.96 42.67C63.9501 42.6116 66.9346 42.3879 69.9 42C70.8 41.9 71.65 41.79 72.5 41.71L90.75 38.29C92.0447 38.0215 93.393 38.2768 94.5 39C95.0486 39.3712 95.518 39.8478 95.8809 40.4019C96.2438 40.9561 96.493 41.5769 96.6139 42.2281C96.7349 42.8794 96.7252 43.5482 96.5855 44.1957C96.4458 44.8433 96.1788 45.4566 95.8 46C95.4286 46.5423 94.9539 47.006 94.4031 47.3646C93.8523 47.7232 93.2362 47.9697 92.59 48.09L75.15 51.37C74.57 51.5 74.05 51.59 73.59 51.66C71.77 51.97 70.87 52.13 70.98 54.72C71.06 56.61 71.29 58.87 71.59 61.23C71.94 64 72.4 66.94 72.88 69.63C73.19 71.4 73.48 72.82 73.88 74.18C74.28 75.54 74.67 76.93 75.27 78.6L81.38 95.5C81.7192 96.4301 81.7746 97.44 81.5392 98.4017C81.3038 99.3633 80.7882 100.233 80.0577 100.902C79.3273 101.57 78.4149 102.007 77.4362 102.156C76.4574 102.305 75.4564 102.16 74.56 101.74C73.9632 101.464 73.4276 101.071 72.9846 100.585C72.5416 100.099 72.2 99.5297 71.98 98.91L63 74.23L62 72.4L61 74.18H61.05ZM61.44 20.66C63.483 20.6583 65.4633 21.365 67.0436 22.6597C68.6239 23.9545 69.7063 25.7571 70.1065 27.7605C70.5066 29.7639 70.1997 31.8441 69.238 33.6465C68.2763 35.449 66.7194 36.8622 64.8325 37.6454C62.9456 38.4286 60.8456 38.5332 58.8902 37.9416C56.9348 37.3499 55.245 36.0985 54.1089 34.4006C52.9728 32.7026 52.4605 30.6633 52.6595 28.6301C52.8584 26.5968 53.7563 24.6955 55.2 23.25C56.0179 22.4281 56.9903 21.776 58.0612 21.3315C59.1322 20.887 60.2805 20.6588 61.44 20.66ZM97.79 25.09C89.391 16.663 78.3297 11.4094 66.491 10.2244C54.6524 9.0395 42.7693 11.9966 32.8667 18.5918C22.9642 25.1871 15.6552 35.0122 12.1853 46.3927C8.71548 57.7733 9.29954 70.0049 13.838 81.0031C18.3764 92.0013 26.5884 101.085 37.0743 106.707C47.5601 112.329 59.671 114.14 71.3429 111.832C83.0147 109.525 93.5252 103.241 101.083 94.0522C108.641 84.8632 112.778 73.3378 112.79 61.44C112.805 54.692 111.488 48.0075 108.914 41.7697C106.339 35.532 102.559 29.8637 97.79 25.09Z" fill="#00A259"/>
</svg>
